<svg width="13" height="13" viewBox="0 0 13 13" fill="none" xmlns="http://www.w3.org/2000/svg">
<mask id="path-1-outside-1_3_78" maskUnits="userSpaceOnUse" x="-0.5" y="-0.5" width="14" height="14" fill="black">
<rect fill="white" x="-0.5" y="-0.5" width="14" height="14"/>
<path d="M6.875 0.512695C9.89766 0.695997 12.31 3.10275 12.5 6.125V6.875C12.316 9.90213 9.90213 12.316 6.875 12.5H6.125C3.10275 12.31 0.695997 9.89766 0.512695 6.875H0.5V6.125H0.512695C0.702049 3.10722 3.10722 0.702049 6.125 0.512695V0.5H6.875V0.512695ZM6.875 11.6826C7.3625 11.5251 7.84242 11.0696 8.23242 10.3721C8.40433 10.0616 8.54814 9.73646 8.66211 9.40039C8.07469 9.26948 7.47648 9.19324 6.875 9.17285V11.6826ZM6.125 9.17285C5.52367 9.18941 4.92529 9.26285 4.33789 9.39258C4.45239 9.72867 4.59601 10.0544 4.76758 10.3652C5.15756 11.0601 5.63755 11.5154 6.125 11.6729V9.17285ZM9.38965 9.61035C9.18345 10.2396 8.87547 10.8311 8.47754 11.3604C9.20667 11.064 9.86003 10.6076 10.3896 10.0254C10.0684 9.85975 9.73381 9.72087 9.38965 9.61035ZM3.61035 9.59961C3.2665 9.70988 2.93195 9.84848 2.61035 10.0127C3.13889 10.5967 3.79254 11.0536 4.52246 11.3496C4.12454 10.8203 3.81652 10.2289 3.61035 9.59961ZM9.86719 6.88281C9.84534 7.55681 9.75534 8.22715 9.59766 8.88281C10.035 9.02121 10.4584 9.20052 10.8623 9.41797C11.368 8.66338 11.6678 7.78901 11.7305 6.88281H9.86719ZM1.26953 6.875C1.32827 7.77975 1.6222 8.65375 2.12207 9.41016C2.52708 9.19317 2.95166 9.01386 3.38965 8.875C3.23161 8.21933 3.1416 7.54911 3.12012 6.875H1.26953ZM6.875 8.4248C7.54838 8.44627 8.21814 8.53282 8.875 8.68262C9.01788 8.08986 9.10162 7.48428 9.125 6.875H6.875V8.4248ZM3.875 6.86719C3.89838 7.47641 3.98215 8.08211 4.125 8.6748C4.78187 8.52624 5.45177 8.4425 6.125 8.4248V6.875L3.875 6.86719ZM8.875 4.3623C8.21798 4.51006 7.54818 4.59378 6.875 4.6123V6.12207L9.10547 6.13477C9.086 5.53798 9.0085 4.94429 8.875 4.3623ZM2.12012 3.6123C1.62553 4.363 1.33195 5.22833 1.26758 6.125H3.14258C3.16018 5.46083 3.24393 4.7999 3.39258 4.15234C2.95218 4.01328 2.52612 3.83242 2.12012 3.6123ZM4.10547 4.35254C3.97195 4.9346 3.89446 5.52814 3.875 6.125H6.125V4.6123C5.44494 4.59197 4.76852 4.50505 4.10547 4.35254ZM10.9023 3.6123C10.4964 3.83241 10.0703 4.01329 9.62988 4.15234C9.77733 4.80012 9.86106 5.46092 9.87988 6.125H11.7529C11.6913 5.22815 11.3979 4.36235 10.9023 3.6123ZM6.125 1.31738C5.6375 1.47488 5.15758 1.93031 4.76758 2.63281C4.59033 2.95208 4.44227 3.28692 4.3252 3.63281C4.91653 3.76595 5.51919 3.84248 6.125 3.8623V1.31738ZM6.8877 3.85547C7.49353 3.83549 8.09611 3.75801 8.6875 3.625C8.57041 3.27905 8.4224 2.94432 8.24512 2.625H8.23242C7.84246 1.93008 7.36264 1.47492 6.8877 1.31738V3.85547ZM4.52246 1.63965C3.78122 1.94351 3.11971 2.41359 2.58789 3.0127C2.91291 3.18101 3.25136 3.32194 3.59961 3.43457C3.80457 2.78896 4.11681 2.18211 4.52246 1.63965ZM8.49023 1.63965C8.89584 2.18205 9.20714 2.78904 9.41211 3.43457C9.75626 3.32127 10.091 3.18046 10.4121 3.0127C9.88389 2.41516 9.22694 1.94516 8.49023 1.63965Z"/>
</mask>
<path d="M6.875 0.512695C9.89766 0.695997 12.31 3.10275 12.5 6.125V6.875C12.316 9.90213 9.90213 12.316 6.875 12.5H6.125C3.10275 12.31 0.695997 9.89766 0.512695 6.875H0.5V6.125H0.512695C0.702049 3.10722 3.10722 0.702049 6.125 0.512695V0.5H6.875V0.512695ZM6.875 11.6826C7.3625 11.5251 7.84242 11.0696 8.23242 10.3721C8.40433 10.0616 8.54814 9.73646 8.66211 9.40039C8.07469 9.26948 7.47648 9.19324 6.875 9.17285V11.6826ZM6.125 9.17285C5.52367 9.18941 4.92529 9.26285 4.33789 9.39258C4.45239 9.72867 4.59601 10.0544 4.76758 10.3652C5.15756 11.0601 5.63755 11.5154 6.125 11.6729V9.17285ZM9.38965 9.61035C9.18345 10.2396 8.87547 10.8311 8.47754 11.3604C9.20667 11.064 9.86003 10.6076 10.3896 10.0254C10.0684 9.85975 9.73381 9.72087 9.38965 9.61035ZM3.61035 9.59961C3.2665 9.70988 2.93195 9.84848 2.61035 10.0127C3.13889 10.5967 3.79254 11.0536 4.52246 11.3496C4.12454 10.8203 3.81652 10.2289 3.61035 9.59961ZM9.86719 6.88281C9.84534 7.55681 9.75534 8.22715 9.59766 8.88281C10.035 9.02121 10.4584 9.20052 10.8623 9.41797C11.368 8.66338 11.6678 7.78901 11.7305 6.88281H9.86719ZM1.26953 6.875C1.32827 7.77975 1.6222 8.65375 2.12207 9.41016C2.52708 9.19317 2.95166 9.01386 3.38965 8.875C3.23161 8.21933 3.1416 7.54911 3.12012 6.875H1.26953ZM6.875 8.4248C7.54838 8.44627 8.21814 8.53282 8.875 8.68262C9.01788 8.08986 9.10162 7.48428 9.125 6.875H6.875V8.4248ZM3.875 6.86719C3.89838 7.47641 3.98215 8.08211 4.125 8.6748C4.78187 8.52624 5.45177 8.4425 6.125 8.4248V6.875L3.875 6.86719ZM8.875 4.3623C8.21798 4.51006 7.54818 4.59378 6.875 4.6123V6.12207L9.10547 6.13477C9.086 5.53798 9.0085 4.94429 8.875 4.3623ZM2.12012 3.6123C1.62553 4.363 1.33195 5.22833 1.26758 6.125H3.14258C3.16018 5.46083 3.24393 4.7999 3.39258 4.15234C2.95218 4.01328 2.52612 3.83242 2.12012 3.6123ZM4.10547 4.35254C3.97195 4.9346 3.89446 5.52814 3.875 6.125H6.125V4.6123C5.44494 4.59197 4.76852 4.50505 4.10547 4.35254ZM10.9023 3.6123C10.4964 3.83241 10.0703 4.01329 9.62988 4.15234C9.77733 4.80012 9.86106 5.46092 9.87988 6.125H11.7529C11.6913 5.22815 11.3979 4.36235 10.9023 3.6123ZM6.125 1.31738C5.6375 1.47488 5.15758 1.93031 4.76758 2.63281C4.59033 2.95208 4.44227 3.28692 4.3252 3.63281C4.91653 3.76595 5.51919 3.84248 6.125 3.8623V1.31738ZM6.8877 3.85547C7.49353 3.83549 8.09611 3.75801 8.6875 3.625C8.57041 3.27905 8.4224 2.94432 8.24512 2.625H8.23242C7.84246 1.93008 7.36264 1.47492 6.8877 1.31738V3.85547ZM4.52246 1.63965C3.78122 1.94351 3.11971 2.41359 2.58789 3.0127C2.91291 3.18101 3.25136 3.32194 3.59961 3.43457C3.80457 2.78896 4.11681 2.18211 4.52246 1.63965ZM8.49023 1.63965C8.89584 2.18205 9.20714 2.78904 9.41211 3.43457C9.75626 3.32127 10.091 3.18046 10.4121 3.0127C9.88389 2.41516 9.22694 1.94516 8.49023 1.63965Z" fill="#A3A3A3"/>
<path d="M6.875 0.512695H6.375V0.983293L6.84473 1.01178L6.875 0.512695ZM12.5 6.125H13V6.1093L12.999 6.09363L12.5 6.125ZM12.5 6.875L12.9991 6.90533L13 6.89018V6.875H12.5ZM6.875 12.5V13H6.89018L6.90533 12.9991L6.875 12.5ZM6.125 12.5L6.09363 12.999L6.1093 13H6.125V12.5ZM0.512695 6.875L1.01178 6.84473L0.983293 6.375H0.512695V6.875ZM0.5 6.875H0V7.375H0.5V6.875ZM0.5 6.125V5.625H0V6.125H0.5ZM0.512695 6.125V6.625H0.982306L1.01171 6.15631L0.512695 6.125ZM6.125 0.512695L6.15631 1.01171L6.625 0.982306V0.512695H6.125ZM6.125 0.5V0H5.625V0.5H6.125ZM6.875 0.5H7.375V0H6.875V0.5ZM6.875 11.6826H6.375V12.3696L7.02872 12.1584L6.875 11.6826ZM8.23242 10.3721L8.66884 10.6161L8.66984 10.6143L8.23242 10.3721ZM8.66211 9.40039L9.13562 9.56097L9.3145 9.03351L8.77087 8.91236L8.66211 9.40039ZM6.875 9.17285L6.89194 8.67314L6.375 8.65561V9.17285H6.875ZM6.125 9.17285H6.625V8.65889L6.11124 8.67304L6.125 9.17285ZM4.33789 9.39258L4.23007 8.90434L3.68439 9.02485L3.8646 9.55382L4.33789 9.39258ZM4.76758 10.3652L4.32981 10.6068L4.33155 10.6099L4.76758 10.3652ZM6.125 11.6729L5.97128 12.1486L6.625 12.3598V11.6729H6.125ZM9.38965 9.61035L9.54252 9.1343L9.06929 8.98233L8.91451 9.45465L9.38965 9.61035ZM8.47754 11.3604L8.0779 11.0599L6.9923 12.5038L8.66581 11.8236L8.47754 11.3604ZM10.3896 10.0254L10.7595 10.3618L11.1981 9.87966L10.6188 9.58097L10.3896 10.0254ZM3.61035 9.59961L4.0855 9.44394L3.93081 8.97176L3.45766 9.12349L3.61035 9.59961ZM2.61035 10.0127L2.38297 9.56739L1.80163 9.86423L2.23963 10.3482L2.61035 10.0127ZM4.52246 11.3496L4.33454 11.813L6.00594 12.4909L4.92212 11.0492L4.52246 11.3496ZM9.86719 6.88281V6.38281H9.38313L9.36745 6.86661L9.86719 6.88281ZM9.59766 8.88281L9.11152 8.7659L9.00256 9.21895L9.44682 9.35952L9.59766 8.88281ZM10.8623 9.41797L10.6253 9.85824L11.025 10.0734L11.2777 9.69632L10.8623 9.41797ZM11.7305 6.88281L12.2293 6.91732L12.2663 6.38281H11.7305V6.88281ZM1.26953 6.875V6.375H0.736015L0.770582 6.90739L1.26953 6.875ZM2.12207 9.41016L1.70493 9.68583L1.9563 10.0662L2.35819 9.85089L2.12207 9.41016ZM3.38965 8.875L3.54075 9.35162L3.98491 9.21081L3.87573 8.75784L3.38965 8.875ZM3.12012 6.875L3.61986 6.85908L3.60444 6.375H3.12012V6.875ZM6.875 8.4248H6.375V8.90912L6.85907 8.92455L6.875 8.4248ZM8.875 8.68262L8.76383 9.1701L9.24535 9.27991L9.36108 8.79978L8.875 8.68262ZM9.125 6.875L9.62463 6.89417L9.64455 6.375H9.125V6.875ZM6.875 6.875V6.375H6.375V6.875H6.875ZM3.875 6.86719L3.87674 6.36719L3.35538 6.36538L3.37537 6.88636L3.875 6.86719ZM4.125 8.6748L3.63892 8.79196L3.75444 9.27124L4.2353 9.16249L4.125 8.6748ZM6.125 8.4248L6.13814 8.92463L6.625 8.91183V8.4248H6.125ZM6.125 6.875H6.625V6.37673L6.12674 6.375L6.125 6.875ZM8.875 4.3623L9.36234 4.25051L9.25103 3.76526L8.7653 3.87449L8.875 4.3623ZM6.875 4.6123L6.86125 4.11249L6.375 4.12587V4.6123H6.875ZM6.875 6.12207H6.375V6.61923L6.87215 6.62206L6.875 6.12207ZM9.10547 6.13477L9.10262 6.63476L9.62214 6.63771L9.6052 6.11846L9.10547 6.13477ZM2.12012 3.6123L2.35843 3.17275L1.95504 2.95405L1.70259 3.33722L2.12012 3.6123ZM1.26758 6.125L0.768861 6.0892L0.730399 6.625H1.26758V6.125ZM3.14258 6.125V6.625H3.6295L3.6424 6.13824L3.14258 6.125ZM3.39258 4.15234L3.8799 4.26421L3.98314 3.81449L3.54313 3.67555L3.39258 4.15234ZM4.10547 4.35254L4.21755 3.86526L3.72999 3.75311L3.61813 4.24075L4.10547 4.35254ZM3.875 6.125L3.37527 6.10871L3.35843 6.625H3.875V6.125ZM6.125 6.125V6.625H6.625V6.125H6.125ZM6.125 4.6123H6.625V4.12703L6.13994 4.11253L6.125 4.6123ZM10.9023 3.6123L11.3195 3.33668L11.0669 2.95433L10.664 3.17275L10.9023 3.6123ZM9.62988 4.15234L9.47933 3.67555L9.04013 3.81423L9.14235 4.26332L9.62988 4.15234ZM9.87988 6.125L9.38008 6.13916L9.39385 6.625H9.87988V6.125ZM11.7529 6.125V6.625H12.2885L12.2518 6.09073L11.7529 6.125ZM6.125 1.31738H6.625V0.630397L5.97128 0.841598L6.125 1.31738ZM4.76758 2.63281L4.33043 2.39012L4.33043 2.39012L4.76758 2.63281ZM4.3252 3.63281L3.85159 3.47251L3.67352 3.99861L4.21537 4.1206L4.3252 3.63281ZM6.125 3.8623L6.10865 4.36204L6.625 4.37893V3.8623H6.125ZM6.8877 3.85547H6.3877V4.37223L6.90418 4.3552L6.8877 3.85547ZM8.6875 3.625L8.79721 4.11281L9.33921 3.99092L9.16111 3.4647L8.6875 3.625ZM8.24512 2.625L8.68226 2.3823L8.53941 2.125H8.24512V2.625ZM8.23242 2.625L7.79638 2.86969L7.93966 3.125H8.23242V2.625ZM6.8877 1.31738L7.04511 0.842809L6.3877 0.624743V1.31738H6.8877ZM4.52246 1.63965L4.92288 1.93908L6.00553 0.491315L4.33281 1.17701L4.52246 1.63965ZM2.58789 3.0127L2.21396 2.68077L1.78745 3.16124L2.35796 3.45669L2.58789 3.0127ZM3.59961 3.43457L3.44574 3.91031L3.92406 4.06501L4.07617 3.58587L3.59961 3.43457ZM8.49023 1.63965L8.68177 1.17779L6.99852 0.479748L8.08981 1.93908L8.49023 1.63965ZM9.41211 3.43457L8.93555 3.58588L9.08848 4.06751L9.56846 3.9095L9.41211 3.43457ZM10.4121 3.0127L10.6436 3.45587L11.2098 3.16011L10.7867 2.68154L10.4121 3.0127ZM6.875 0.512695L6.84473 1.01178C9.61553 1.17981 11.8268 3.386 12.001 6.15637L12.5 6.125L12.999 6.09363C12.7932 2.8195 10.1798 0.212187 6.90527 0.0136122L6.875 0.512695ZM12.5 6.125H12V6.875H12.5H13V6.125H12.5ZM12.5 6.875L12.0009 6.84467C11.8323 9.61954 9.61954 11.8323 6.84467 12.0009L6.875 12.5L6.90533 12.9991C10.1847 12.7998 12.7998 10.1847 12.9991 6.90533L12.5 6.875ZM6.875 12.5V12H6.125V12.5V13H6.875V12.5ZM6.125 12.5L6.15637 12.001C3.386 11.8268 1.17981 9.61553 1.01178 6.84473L0.512695 6.875L0.0136122 6.90527C0.212187 10.1798 2.8195 12.7932 6.09363 12.999L6.125 12.5ZM0.512695 6.875V6.375H0.5V6.875V7.375H0.512695V6.875ZM0.5 6.875H1V6.125H0.5H0V6.875H0.5ZM0.5 6.125V6.625H0.512695V6.125V5.625H0.5V6.125ZM0.512695 6.125L1.01171 6.15631C1.18529 3.39001 3.39001 1.18529 6.15631 1.01171L6.125 0.512695L6.09369 0.0136767C2.82443 0.21881 0.21881 2.82443 0.0136767 6.09369L0.512695 6.125ZM6.125 0.512695H6.625V0.5H6.125H5.625V0.512695H6.125ZM6.125 0.5V1H6.875V0.5V0H6.125V0.5ZM6.875 0.5H6.375V0.512695H6.875H7.375V0.5H6.875ZM6.875 11.6826L7.02872 12.1584C7.68464 11.9465 8.24755 11.3695 8.66883 10.6161L8.23242 10.3721L7.79601 10.1281C7.43729 10.7696 7.04036 11.1037 6.72128 11.2068L6.875 11.6826ZM8.23242 10.3721L8.66984 10.6143C8.85617 10.2778 9.01206 9.9253 9.13562 9.56097L8.66211 9.40039L8.1886 9.23981C8.08421 9.54762 7.95248 9.84546 7.795 10.1299L8.23242 10.3721ZM8.66211 9.40039L8.77087 8.91236C8.15333 8.77474 7.52439 8.69458 6.89194 8.67314L6.875 9.17285L6.85806 9.67256C7.42858 9.69191 7.99605 9.76422 8.55335 9.88842L8.66211 9.40039ZM6.875 9.17285H6.375V11.6826H6.875H7.375V9.17285H6.875ZM6.125 9.17285L6.11124 8.67304C5.47836 8.69047 4.84849 8.76777 4.23007 8.90434L4.33789 9.39258L4.44572 9.88081C5.0021 9.75794 5.56897 9.68835 6.13876 9.67266L6.125 9.17285ZM4.33789 9.39258L3.8646 9.55382C3.98846 9.91737 4.14391 10.27 4.32982 10.6068L4.76758 10.3652L5.20533 10.1236C5.04811 9.83876 4.91633 9.53998 4.81118 9.23134L4.33789 9.39258ZM4.76758 10.3652L4.33155 10.6099C4.75283 11.3606 5.31577 11.9369 5.97128 12.1486L6.125 11.6729L6.27872 11.1971C5.95933 11.0939 5.56229 10.7596 5.20361 10.1205L4.76758 10.3652ZM6.125 11.6729H6.625V9.17285H6.125H5.625V11.6729H6.125ZM9.38965 9.61035L8.91451 9.45465C8.7253 10.032 8.44277 10.5746 8.0779 11.0599L8.47754 11.3604L8.87718 11.6608C9.30817 11.0876 9.64159 10.4472 9.86479 9.76605L9.38965 9.61035ZM8.47754 11.3604L8.66581 11.8236C9.4643 11.499 10.1797 10.9992 10.7595 10.3618L10.3896 10.0254L10.0198 9.68893C9.54038 10.2159 8.94903 10.629 8.28927 10.8972L8.47754 11.3604ZM10.3896 10.0254L10.6188 9.58097C10.273 9.40273 9.91297 9.25325 9.54252 9.1343L9.38965 9.61035L9.23678 10.0864C9.55466 10.1885 9.8637 10.3168 10.1605 10.4698L10.3896 10.0254ZM3.61035 9.59961L3.45766 9.12349C3.08764 9.24216 2.72813 9.39114 2.38297 9.56739L2.61035 10.0127L2.83773 10.458C3.13577 10.3058 3.44537 10.1776 3.76304 10.0757L3.61035 9.59961ZM2.61035 10.0127L2.23963 10.3482C2.81875 10.9881 3.53492 11.4886 4.33454 11.813L4.52246 11.3496L4.71039 10.8863C4.05016 10.6185 3.45902 10.2053 2.98108 9.67719L2.61035 10.0127ZM4.52246 11.3496L4.92212 11.0492C4.55722 10.5638 4.27466 10.0213 4.0855 9.44394L3.61035 9.59961L3.1352 9.75528C3.35838 10.4365 3.69186 11.0768 4.1228 11.6501L4.52246 11.3496ZM9.86719 6.88281L9.36745 6.86661C9.3467 7.50692 9.2612 8.1435 9.11152 8.7659L9.59766 8.88281L10.0838 8.99972C10.2495 8.3108 10.344 7.60671 10.3669 6.89901L9.86719 6.88281ZM9.59766 8.88281L9.44682 9.35952C9.85423 9.48843 10.2487 9.65551 10.6253 9.85824L10.8623 9.41797L11.0993 8.9777C10.668 8.74554 10.2159 8.55398 9.74849 8.40611L9.59766 8.88281ZM10.8623 9.41797L11.2777 9.69632C11.8319 8.8693 12.1605 7.91089 12.2293 6.91732L11.7305 6.88281L11.2317 6.8483C11.175 7.66713 10.9041 8.45746 10.4469 9.13962L10.8623 9.41797ZM11.7305 6.88281V6.38281H9.86719V6.88281V7.38281H11.7305V6.88281ZM1.26953 6.875L0.770582 6.90739C0.834962 7.89898 1.15709 8.85683 1.70493 9.68583L2.12207 9.41016L2.53921 9.13449C2.08731 8.45067 1.82159 7.66052 1.76848 6.84261L1.26953 6.875ZM2.12207 9.41016L2.35819 9.85089C2.73608 9.64843 3.13221 9.48114 3.54075 9.35162L3.38965 8.875L3.23854 8.39838C2.77112 8.54657 2.31807 8.73791 1.88595 8.96942L2.12207 9.41016ZM3.38965 8.875L3.87573 8.75784C3.72574 8.13558 3.64026 7.49929 3.61986 6.85908L3.12012 6.875L2.62037 6.89092C2.64293 7.59893 2.73748 8.30307 2.90357 8.99216L3.38965 8.875ZM3.12012 6.875V6.375H1.26953V6.875V7.375H3.12012V6.875ZM6.875 8.4248L6.85907 8.92455C7.50023 8.94499 8.13809 9.0274 8.76383 9.1701L8.875 8.68262L8.98617 8.19513C8.29818 8.03824 7.59654 7.94756 6.89093 7.92506L6.875 8.4248ZM8.875 8.68262L9.36108 8.79978C9.51171 8.17488 9.59999 7.53648 9.62463 6.89417L9.125 6.875L8.62537 6.85583C8.60326 7.43209 8.52405 8.00484 8.38892 8.56545L8.875 8.68262ZM9.125 6.875V6.375H6.875V6.875V7.375H9.125V6.875ZM6.875 6.875H6.375V8.4248H6.875H7.375V6.875H6.875ZM3.875 6.86719L3.37537 6.88636C3.40001 7.52861 3.48832 8.16713 3.63892 8.79196L4.125 8.6748L4.61108 8.55765C4.47597 7.99708 4.39674 7.42421 4.37463 6.84802L3.875 6.86719ZM4.125 8.6748L4.2353 9.16249C4.86026 9.02114 5.49762 8.94147 6.13814 8.92463L6.125 8.4248L6.11186 7.92498C5.40593 7.94354 4.70348 8.03134 4.0147 8.18712L4.125 8.6748ZM6.125 8.4248H6.625V6.875H6.125H5.625V8.4248H6.125ZM6.125 6.875L6.12674 6.375L3.87674 6.36719L3.875 6.86719L3.87326 7.36718L6.12326 7.375L6.125 6.875ZM8.875 4.3623L8.7653 3.87449C8.1398 4.01515 7.50213 4.09486 6.86125 4.11249L6.875 4.6123L6.88875 5.11212C7.59422 5.0927 8.29616 5.00496 8.9847 4.85012L8.875 4.3623ZM6.875 4.6123H6.375V6.12207H6.875H7.375V4.6123H6.875ZM6.875 6.12207L6.87215 6.62206L9.10262 6.63476L9.10547 6.13477L9.10831 5.63477L6.87785 5.62208L6.875 6.12207ZM9.10547 6.13477L9.6052 6.11846C9.58468 5.48928 9.50298 4.86361 9.36234 4.25051L8.875 4.3623L8.38766 4.4741C8.51402 5.02497 8.58732 5.58669 8.60573 6.15107L9.10547 6.13477ZM2.12012 3.6123L1.70259 3.33722C1.16089 4.15942 0.839358 5.10714 0.768861 6.0892L1.26758 6.125L1.76629 6.1608C1.82453 5.34951 2.09016 4.56658 2.53764 3.88739L2.12012 3.6123ZM1.26758 6.125V6.625H3.14258V6.125V5.625H1.26758V6.125ZM3.14258 6.125L3.6424 6.13824C3.65912 5.50727 3.73868 4.87939 3.8799 4.26421L3.39258 4.15234L2.90525 4.04047C2.74917 4.72042 2.66123 5.41439 2.64275 6.11176L3.14258 6.125ZM3.39258 4.15234L3.54313 3.67555C3.13314 3.54609 2.73646 3.37771 2.35843 3.17275L2.12012 3.6123L1.88181 4.05186C2.31577 4.28714 2.77122 4.48048 3.24203 4.62914L3.39258 4.15234ZM4.10547 4.35254L3.61813 4.24075C3.47747 4.85391 3.39578 5.47943 3.37527 6.10871L3.875 6.125L4.37473 6.14129C4.39313 5.57686 4.46643 5.01529 4.59281 4.46433L4.10547 4.35254ZM3.875 6.125V6.625H6.125V6.125V5.625H3.875V6.125ZM6.125 6.125H6.625V4.6123H6.125H5.625V6.125H6.125ZM6.125 4.6123L6.13994 4.11253C5.49253 4.09317 4.84865 4.01043 4.21755 3.86526L4.10547 4.35254L3.99339 4.83981C4.68839 4.99968 5.39735 5.09077 6.11006 5.11208L6.125 4.6123ZM10.9023 3.6123L10.664 3.17275C10.286 3.3777 9.8893 3.5461 9.47933 3.67555L9.62988 4.15234L9.78044 4.62914C10.2512 4.48048 10.7067 4.28713 11.1407 4.05186L10.9023 3.6123ZM9.62988 4.15234L9.14235 4.26332C9.28256 4.87929 9.36219 5.50767 9.38008 6.13916L9.87988 6.125L10.3797 6.11084C10.3599 5.41418 10.2721 4.72095 10.1174 4.04137L9.62988 4.15234ZM9.87988 6.125V6.625H11.7529V6.125V5.625H9.87988V6.125ZM11.7529 6.125L12.2518 6.09073C12.1842 5.10754 11.8626 4.15862 11.3195 3.33668L10.9023 3.6123L10.4852 3.88793C10.9332 4.56608 11.1984 5.34876 11.2541 6.15927L11.7529 6.125ZM6.125 1.31738L5.97128 0.841598C5.3149 1.05366 4.75186 1.63101 4.33043 2.39012L4.76758 2.63281L5.20473 2.8755C5.5633 2.22962 5.9601 1.8961 6.27872 1.79317L6.125 1.31738ZM4.76758 2.63281L4.33043 2.39012C4.13854 2.73577 3.97828 3.09819 3.85159 3.47251L4.3252 3.63281L4.7988 3.79311C4.90625 3.47565 5.04213 3.16839 5.20473 2.8755L4.76758 2.63281ZM4.3252 3.63281L4.21537 4.1206C4.83767 4.26071 5.47163 4.34119 6.10865 4.36204L6.125 3.8623L6.14135 3.36257C5.56675 3.34377 4.99539 3.27118 4.43502 3.14502L4.3252 3.63281ZM6.125 3.8623H6.625V1.31738H6.125H5.625V3.8623H6.125ZM6.8877 3.85547L6.90418 4.3552C7.54165 4.33417 8.17545 4.25265 8.79721 4.11281L8.6875 3.625L8.57779 3.13719C8.01678 3.26336 7.4454 3.3368 6.87121 3.35574L6.8877 3.85547ZM8.6875 3.625L9.16111 3.4647C9.03439 3.09033 8.8742 2.72801 8.68226 2.3823L8.24512 2.625L7.80797 2.8677C7.9706 3.16062 8.10642 3.46777 8.21389 3.7853L8.6875 3.625ZM8.24512 2.625V2.125H8.23242V2.625V3.125H8.24512V2.625ZM8.23242 2.625L8.66846 2.38031C8.24766 1.63045 7.68606 1.05541 7.04511 0.842809L6.8877 1.31738L6.73028 1.79196C7.03923 1.89443 7.43726 2.22972 7.79638 2.86969L8.23242 2.625ZM6.8877 1.31738H6.3877V3.85547H6.8877H7.3877V1.31738H6.8877ZM4.52246 1.63965L4.33281 1.17701C3.52069 1.50992 2.79623 2.02483 2.21396 2.68077L2.58789 3.0127L2.96182 3.34463C3.44319 2.80234 4.04175 2.37709 4.71211 2.10229L4.52246 1.63965ZM2.58789 3.0127L2.35796 3.45669C2.70765 3.63778 3.07155 3.78928 3.44574 3.91031L3.59961 3.43457L3.75348 2.95883C3.43116 2.85459 3.11817 2.72424 2.81782 2.5687L2.58789 3.0127ZM3.59961 3.43457L4.07617 3.58587C4.26417 2.99369 4.55062 2.43689 4.92288 1.93908L4.52246 1.63965L4.12204 1.34021C3.68299 1.92733 3.34498 2.58423 3.12305 3.28328L3.59961 3.43457ZM8.49023 1.63965L8.08981 1.93908C8.46176 2.43647 8.74742 2.99335 8.93555 3.58588L9.41211 3.43457L9.88866 3.28326C9.66687 2.58474 9.32993 1.92763 8.89066 1.34021L8.49023 1.63965ZM9.41211 3.43457L9.56846 3.9095C9.93801 3.78783 10.2979 3.63648 10.6436 3.45587L10.4121 3.0127L10.1806 2.56952C9.88404 2.72444 9.57451 2.85471 9.25576 2.95964L9.41211 3.43457ZM10.4121 3.0127L10.7867 2.68154C10.2084 2.02735 9.48896 1.51253 8.68177 1.17779L8.49023 1.63965L8.2987 2.10151C8.96492 2.37779 9.55935 2.80296 10.0375 3.34385L10.4121 3.0127Z" fill="#F7F7F7" mask="url(#path-1-outside-1_3_78)"/>
</svg>
