<svg width="13" height="20" viewBox="0 0 13 20" fill="none" xmlns="http://www.w3.org/2000/svg">
<path d="M11.8418 10.74C11.5618 10.17 10.7718 9.69 9.72177 10.5C8.29177 11.64 6.01177 11.64 6.01177 11.64C6.01177 11.64 3.73177 11.64 2.30177 10.5C1.25177 9.69 0.46177 10.17 0.18177 10.74C-0.31823 11.74 0.24177 12.23 1.51177 13.04C2.60177 13.74 4.09177 14 5.05177 14.1L4.25177 14.9C3.11177 16.03 2.01177 17.12 1.26177 17.88C0.81177 18.34 0.81177 19.07 1.26177 19.5L1.40177 19.66C1.85177 20.11 2.59177 20.11 3.04177 19.66L6.01177 16.68C7.16177 17.81 8.25177 18.9 9.01177 19.66C9.46177 20.11 10.1918 20.11 10.6518 19.66L10.7818 19.5C11.2418 19.07 11.2418 18.34 10.7818 17.88L7.80177 14.9L7.01177 14.09C7.96177 14 9.43177 13.73 10.5118 13.04C11.7818 12.23 12.3418 11.74 11.8418 10.74ZM6.01177 2.57C7.39177 2.57 8.51177 3.69 8.51177 5.06C8.51177 6.44 7.39177 7.55 6.01177 7.55C4.63177 7.55 3.51177 6.44 3.51177 5.06C3.51177 3.69 4.63177 2.57 6.01177 2.57ZM6.01177 10.12C8.81177 10.12 11.0718 7.86 11.0718 5.06C11.0718 3.718 10.5387 2.43097 9.58973 1.48204C8.64079 0.533106 7.35377 0 6.01177 0C4.66977 0 3.38274 0.533106 2.43381 1.48204C1.48488 2.43097 0.95177 3.718 0.95177 5.06C0.95177 7.86 3.21177 10.12 6.01177 10.12Z" fill="#2ABE80"/>
</svg>
