<svg width="91" height="19" viewBox="0 0 91 19" fill="none" xmlns="http://www.w3.org/2000/svg">
<path d="M50.0554 16.6698H48.2708V9.1251H41.4822V16.6698H39.7062V0.34691H41.4822V7.3642H48.2708V0.34691H50.0554V16.6698Z" fill="#FF5953"/>
<path d="M58.1486 0.122543C59.1758 0.105643 60.1794 0.438641 61.0012 1.06883C61.824 1.70073 62.458 2.61639 62.9025 3.8159C63.3699 5.15926 63.5951 6.57891 63.5676 8.00438V9.03368C63.5676 10.6328 63.346 12.0295 62.9025 13.2222C62.4591 14.4146 61.8304 15.3244 61.0168 15.9516C59.3289 17.214 57.0348 17.214 55.3469 15.9516C54.5276 15.3209 53.8914 14.4198 53.4377 13.2495C52.9614 11.951 52.7245 10.5737 52.7385 9.187V8.00438C52.7136 6.58737 52.9419 5.17706 53.4133 3.84422C53.8612 2.64005 54.4976 1.7193 55.3215 1.08153C56.1319 0.446947 57.1278 0.108811 58.1486 0.122543ZM58.1486 1.97508C57.0263 1.97508 56.1428 2.4927 55.4982 3.52879C54.8537 4.56489 54.5224 6.00194 54.5041 7.83934V9.03758C54.5041 10.9135 54.8294 12.388 55.4797 13.4614C56.1299 14.5347 57.0249 15.0708 58.1652 15.0698C59.3137 15.0698 60.2019 14.5637 60.8293 13.5513C61.4567 12.5386 61.7805 11.0853 61.8 9.19188L61.8019 7.98289C61.8019 6.04737 61.4812 4.56177 60.84 3.52684C60.1989 2.49202 59.3017 1.97511 58.1486 1.97508Z" fill="#FF5953"/>
<path d="M68.5251 0.34691L72.9274 13.6631L77.3297 0.34691H79.6285V16.6698H77.8577V10.313L78.0291 3.45169L73.608 16.6698H72.2485L67.8308 3.48498L68.0022 10.3183V16.675H66.2314V0.34691H68.5251Z" fill="#FF5953"/>
<path d="M90.3805 9.1251H84.5519V14.9071H91.3302V16.668H82.7759V0.34691H91.2377V2.09904H84.5519V7.35544H90.3805V9.1251Z" fill="#FF5953"/>
<path d="M27.9959 6.50391C27.1742 6.50391 26.5845 6.96063 26.2267 7.87408V11.6464C26.6073 12.5587 27.2016 13.0154 28.0096 13.0166C28.5894 13.0292 29.1272 12.7083 29.4016 12.1861C29.7342 11.6324 29.9005 10.7996 29.9005 9.68753C29.9005 8.6713 29.7365 7.88692 29.4085 7.33442C29.128 6.80795 28.5821 6.487 27.9959 6.50391Z" fill="#FF5953"/>
<path d="M30.8437 6.59446e-07C31.4494 -0.000377339 32.0304 0.245126 32.4589 0.682618C32.8875 1.12035 33.1288 1.71471 33.1288 2.33399V7.64844H33.4355C34.1574 7.64847 34.8498 7.94117 35.3603 8.46289C35.8708 8.98469 36.1572 9.69273 36.1572 10.4307V13.8896C36.1528 15.3739 35.0084 16.5924 33.5576 16.6572V18.2695H31.8857V16.6641H4.15717V18.2695H2.48529V16.6572C1.08011 16.5326 0.00113713 15.3312 -6.04403e-05 13.8896V10.4307C-0.00103897 8.90274 1.20525 7.66001 2.70013 7.64941V2.33399C2.70013 1.71471 2.94048 1.12035 3.36908 0.682618C3.79767 0.244909 4.37941 -0.000464251 4.98529 6.59446e-07H30.8437ZM24.9843 1.74024V14.124H26.1288L26.1894 13.1162C26.642 13.8702 27.4563 14.317 28.3212 14.2852C29.1818 14.2852 29.868 13.8806 30.3788 13.0723C30.8896 12.264 31.1454 11.1931 31.1454 9.85938L31.1484 9.72461C31.1507 8.33225 30.8988 7.23569 30.3925 6.43555C29.8862 5.63542 29.1918 5.23535 28.3095 5.23535C27.4724 5.21002 26.6835 5.63466 26.2304 6.35449V1.74024H24.9843ZM20.5458 5.23535C19.9607 5.23723 19.3931 5.44014 18.9345 5.81152C18.4155 6.22696 18.0157 6.77811 17.7773 7.40625C17.4912 8.14457 17.3517 8.93358 17.3661 9.72754V9.99219C17.3673 11.2922 17.6767 12.3307 18.2949 13.1074C18.8719 13.8635 19.7651 14.2955 20.7031 14.2725C21.9214 14.2736 22.8359 13.7126 23.4462 12.5889L22.6865 11.8887C22.4756 12.2231 22.2033 12.5126 21.8847 12.7412C21.5543 12.964 21.1642 13.0765 20.7685 13.0635C20.1621 13.0701 19.5902 12.7745 19.2372 12.2705C18.835 11.7414 18.6255 11.0462 18.6083 10.1865H23.541V9.56348C23.541 8.17135 23.2782 7.10186 22.7538 6.35547C22.2522 5.6226 21.4202 5.20027 20.5458 5.23535ZM8.96576 5.23926C8.10472 5.2148 7.29056 5.63959 6.8056 6.36719L6.77142 5.40039H5.59076V14.1201H6.8349V7.75293C7.13664 6.92026 7.69575 6.50391 8.51166 6.50391C9.54807 6.50401 10.0663 7.138 10.0663 8.40527V14.1113H11.3173V8.33008C11.34 7.83656 11.5283 7.3653 11.8495 6.99609C12.1452 6.66969 12.5639 6.4886 12.999 6.5C13.5628 6.5 13.9609 6.65464 14.1992 6.96289C14.4368 7.27586 14.5555 7.74306 14.5556 8.36426V14.1201H15.8027L15.8007 8.27734C15.7756 6.25204 14.963 5.23942 13.3632 5.23926C12.879 5.22734 12.4014 5.3607 11.9912 5.62402C11.6024 5.88263 11.2783 6.23103 11.0449 6.64063C10.6769 5.70622 9.98399 5.23928 8.96576 5.23926Z" fill="#FF5953"/>
<path d="M20.5457 6.46361C20.0471 6.46424 19.5788 6.70842 19.2857 7.12066C18.9429 7.55869 18.732 8.17252 18.6531 8.96215H22.3011V8.85001C22.2657 8.09192 22.0943 7.50438 21.7869 7.08737C21.5008 6.68097 21.0353 6.44704 20.5457 6.46361Z" fill="#FF5953"/>
</svg>
