<svg width="14" height="14" viewBox="0 0 14 14" fill="none" xmlns="http://www.w3.org/2000/svg">
<mask id="path-1-outside-1_3_109" maskUnits="userSpaceOnUse" x="-0.5" y="-0.5" width="15" height="15" fill="black">
<rect fill="white" x="-0.5" y="-0.5" width="15" height="15"/>
<path d="M7 0.5C10.5899 0.5 13.5 3.41015 13.5 7C13.5 10.5899 10.5899 13.5 7 13.5C3.41015 13.5 0.5 10.5899 0.5 7C0.5 3.41015 3.41015 0.5 7 0.5ZM7 1.5C3.96243 1.5 1.5 3.96243 1.5 7C1.5 10.0376 3.96243 12.5 7 12.5C10.0376 12.5 12.5 10.0376 12.5 7C12.5 3.96243 10.0376 1.5 7 1.5ZM7 7.60156L4.59961 10L4 9.39551L6.39746 7L7 7.60156ZM10 9.39551L9.40039 10L7 7.60156L7.60156 7L10 9.39551ZM7 6.39746L6.39746 7L4 4.60449L4.59961 4L7 6.39746ZM10 4.60449L7.60156 7L7 6.39746L9.40039 4L10 4.60449Z"/>
</mask>
<path d="M7 0.5C10.5899 0.5 13.5 3.41015 13.5 7C13.5 10.5899 10.5899 13.5 7 13.5C3.41015 13.5 0.5 10.5899 0.5 7C0.5 3.41015 3.41015 0.5 7 0.5ZM7 1.5C3.96243 1.5 1.5 3.96243 1.5 7C1.5 10.0376 3.96243 12.5 7 12.5C10.0376 12.5 12.5 10.0376 12.5 7C12.5 3.96243 10.0376 1.5 7 1.5ZM7 7.60156L4.59961 10L4 9.39551L6.39746 7L7 7.60156ZM10 9.39551L9.40039 10L7 7.60156L7.60156 7L10 9.39551ZM7 6.39746L6.39746 7L4 4.60449L4.59961 4L7 6.39746ZM10 4.60449L7.60156 7L7 6.39746L9.40039 4L10 4.60449Z" fill="#A3A3A3"/>
<path d="M4.59961 10L4.24463 10.3521L4.59803 10.7084L4.95302 10.3537L4.59961 10ZM4 9.39551L3.64659 9.04181L3.29418 9.39393L3.64502 9.74762L4 9.39551ZM10 9.39551L10.355 9.74762L10.7059 9.39386L10.3533 9.04174L10 9.39551ZM9.40039 10L9.04698 10.3537L9.40197 10.7084L9.75537 10.3521L9.40039 10ZM4 4.60449L3.64502 4.25238L3.29418 4.60607L3.64659 4.95819L4 4.60449ZM4.59961 4L4.95295 3.64623L4.59796 3.29167L4.24463 3.64788L4.59961 4ZM10 4.60449L10.3533 4.95826L10.7059 4.60614L10.355 4.25238L10 4.60449ZM9.40039 4L9.75537 3.64788L9.40204 3.29167L9.04705 3.64623L9.40039 4ZM7 0.5V1C10.3137 1 13 3.68629 13 7H13.5H14C14 3.13401 10.866 0 7 0V0.5ZM13.5 7H13C13 10.3137 10.3137 13 7 13V13.5V14C10.866 14 14 10.866 14 7H13.5ZM7 13.5V13C3.68629 13 1 10.3137 1 7H0.5H0C0 10.866 3.13401 14 7 14V13.5ZM0.5 7H1C1 3.68629 3.68629 1 7 1V0.5V0C3.13401 0 0 3.13401 0 7H0.5ZM7 1.5V1C3.68629 1 1 3.68629 1 7H1.5H2C2 4.23858 4.23858 2 7 2V1.5ZM1.5 7H1C1 10.3137 3.68629 13 7 13V12.5V12C4.23858 12 2 9.76142 2 7H1.5ZM7 12.5V13C10.3137 13 13 10.3137 13 7H12.5H12C12 9.76142 9.76142 12 7 12V12.5ZM12.5 7H13C13 3.68629 10.3137 1 7 1V1.5V2C9.76142 2 12 4.23858 12 7H12.5ZM7 7.60156L6.64659 7.24787L4.2462 9.6463L4.59961 10L4.95302 10.3537L7.35341 7.95526L7 7.60156ZM4.59961 10L4.95459 9.64788L4.35498 9.04339L4 9.39551L3.64502 9.74762L4.24463 10.3521L4.59961 10ZM4 9.39551L4.35341 9.74921L6.75087 7.3537L6.39746 7L6.04405 6.6463L3.64659 9.04181L4 9.39551ZM6.39746 7L6.04419 7.35384L6.64673 7.9554L7 7.60156L7.35327 7.24772L6.75073 6.64616L6.39746 7ZM10 9.39551L9.64502 9.04339L9.04541 9.64788L9.40039 10L9.75537 10.3521L10.355 9.74762L10 9.39551ZM9.40039 10L9.7538 9.6463L7.35341 7.24787L7 7.60156L6.64659 7.95526L9.04698 10.3537L9.40039 10ZM7 7.60156L7.35355 7.95512L7.95512 7.35355L7.60156 7L7.24801 6.64645L6.64645 7.24801L7 7.60156ZM7.60156 7L7.24823 7.35377L9.64666 9.74928L10 9.39551L10.3533 9.04174L7.9549 6.64623L7.60156 7ZM7 6.39746L6.64645 6.04391L6.04391 6.64645L6.39746 7L6.75101 7.35355L7.35355 6.75101L7 6.39746ZM6.39746 7L6.75087 6.6463L4.35341 4.25079L4 4.60449L3.64659 4.95819L6.04405 7.3537L6.39746 7ZM4 4.60449L4.35498 4.95661L4.95459 4.35212L4.59961 4L4.24463 3.64788L3.64502 4.25238L4 4.60449ZM4.59961 4L4.24627 4.35377L6.64666 6.75123L7 6.39746L7.35334 6.04369L4.95295 3.64623L4.59961 4ZM10 4.60449L9.64666 4.25072L7.24823 6.64623L7.60156 7L7.9549 7.35377L10.3533 4.95826L10 4.60449ZM7.60156 7L7.9554 6.64673L7.35384 6.04419L7 6.39746L6.64616 6.75073L7.24772 7.35327L7.60156 7ZM7 6.39746L7.35334 6.75123L9.75373 4.35377L9.40039 4L9.04705 3.64623L6.64666 6.04369L7 6.39746ZM9.40039 4L9.04541 4.35212L9.64502 4.95661L10 4.60449L10.355 4.25238L9.75537 3.64788L9.40039 4Z" fill="#F7F7F7" mask="url(#path-1-outside-1_3_109)"/>
</svg>
